IKResults
version=1
nRows=27
nColumns=26
inDegrees=yes

Units are S.I. units (second, meters, Newtons, ...)
If the header above contains a line with 'inDegrees', this indicates whether rotational values are in degrees (yes) or radians (no).

endheader
time	pelvis_tilt	pelvis_list	pelvis_rotation	pelvis_tx	pelvis_ty	pelvis_tz	hip_flexion_r	hip_adduction_r	hip_rotation_r	knee_angle_r	knee_angle_r_beta	ankle_angle_r	subtalar_angle_r	mtp_angle_r	hip_flexion_l	hip_adduction_l	hip_rotation_l	knee_angle_l	knee_angle_l_beta	ankle_angle_l	subtalar_angle_l	mtp_angle_l	lumbar_extension	lumbar_bending	lumbar_rotation
      3.75500000	     11.39214274	     -5.66324002	      8.17252696	     -0.16971021	      0.84163244	     -0.54597026	      4.29076762	     -4.07227998	    -16.89277138	     58.02685832	      1.01275973	     29.99886493	      0.00000000	      0.00000000	      9.62133724	    -17.88159931	     -2.40012000	     61.30527948	      1.06997898	     29.99813097	      0.00000000	      0.00000000	    -23.85589487	      7.94584687	     -4.42851581
      3.76000000	     11.33925750	     -5.59096748	      8.05648446	     -0.16896964	      0.84360472	     -0.54575528	      3.97278720	     -4.09580563	    -17.05765736	     57.36128632	      1.00114331	     29.99879968	      0.00000000	      0.00000000	      9.22976111	    -17.87127456	     -2.91690755	     60.65897556	      1.05869884	     29.99793021	      0.00000000	      0.00000000	    -23.62772554	      7.80625060	     -4.36092929
      3.76500000	     11.25476090	     -5.51030607	      7.94259299	     -0.16810331	      0.84600252	     -0.54553265	      3.64260295	     -4.11330734	    -17.19984232	     56.59576743	      0.98778248	     29.99868599	      0.00000000	      0.00000000	      8.82128840	    -17.83264478	     -3.40418245	     59.91409680	      1.04569826	     29.99754288	      0.00000000	      0.00000000	    -23.33576042	      7.65446269	     -4.31043493
      3.77000000	     11.13952834	     -5.41802184	      7.83612498	     -0.16711472	      0.84879090	     -0.54529899	      3.30402692	     -4.12768107	    -17.31215537	     55.73999418	      0.97284642	     29.99849595	      0.00000000	      0.00000000	      8.40189763	    -17.76322160	     -3.84917258	     59.07686754	      1.03108585	     29.99672547	      0.00000000	      0.00000000	    -22.98218862	      7.48713266	     -4.28468160
      3.77500000	     10.99232344	     -5.31641406	      7.73445739	     -0.16602286	      0.85195000	     -0.54506207	      2.96157946	     -4.13571320	    -17.38323636	     54.79472718	      0.95634840	     29.99816558	      0.00000000	      0.00000000	      7.97606814	    -17.66357205	     -4.24922858	     58.15076183	      1.01492226	     29.99436955	      0.00000000	      0.00000000	    -22.57167542	      7.30683415	     -4.27511667
      3.78000000	     10.82101396	     -5.20422523	      7.63455116	     -0.16483574	      0.85546476	     -0.54481571	      2.60886003	     -4.13859412	    -17.41356310	     53.76544101	      0.93838397	     29.99751028	      0.00000000	      0.00000000	      7.53353602	    -17.53707809	     -4.61687453	     57.13283425	      0.99715607	     29.96458427	      0.00000000	      0.00000000	    -22.11338927	      7.11130925	     -4.27512846
      3.78500000	     10.66082277	     -5.02730439	      7.49929075	     -0.16351881	      0.85949025	     -0.54445687	      2.19362622	     -4.18182311	    -17.37104415	     52.63002434	      0.91856721	     29.99575479	      0.00000000	      0.00000000	      6.95254939	    -17.33869285	     -5.05044476	     55.84670331	      0.97470885	     28.94058871	      0.00000000	      0.00000000	    -21.65820934	      6.82717319	     -4.26507911
      3.79000000	     10.50419288	     -4.81667564	      7.35031155	     -0.16209306	      0.86390949	     -0.54405343	      1.72712511	     -4.24571165	    -17.29849557	     51.39829034	      0.89706940	     29.98018562	      0.00000000	      0.00000000	      6.28944356	    -17.09611456	     -5.51351032	     54.39922116	      0.94944552	     27.56315982	      0.00000000	      0.00000000	    -21.19185042	      6.49902190	     -4.25698719
      3.79500000	     10.39492075	     -4.61497058	      7.22526865	     -0.16052785	      0.86880202	     -0.54369639	      1.10385274	     -4.26996899	    -17.26581279	     49.89241879	      0.87078698	     28.93828608	      0.00000000	      0.00000000	      5.51122177	    -16.85607259	     -5.98096832	     52.79605548	      0.92146500	     25.99194376	      0.00000000	      0.00000000	    -20.75134503	      6.19357612	     -4.26411764
      3.80000000	     10.31732026	     -4.40137409	      7.10052755	     -0.15884597	      0.87408329	     -0.54333476	      0.36925123	     -4.28598255	    -17.25189518	     48.20845113	      0.84139620	     27.44404405	      0.00000000	      0.00000000	      4.63111043	    -16.59967793	     -6.48757493	     51.05125310	      0.89101245	     24.24760172	      0.00000000	      0.00000000	    -20.32646794	      5.87741704	     -4.27688236
      3.80500000	     10.25839506	     -4.16221439	      6.95981046	     -0.15707936	      0.87968269	     -0.54293892	     -0.44164786	     -4.31523991	    -17.24252645	     46.40354386	      0.80989462	     25.82990340	      0.00000000	      0.00000000	      3.66350044	    -16.31000965	     -7.05187427	     49.17737620	      0.85830713	     22.33741437	      0.00000000	      0.00000000	    -19.91044420	      5.52916209	     -4.28655268
      3.81000000	     10.21718859	     -3.89678876	      6.80358459	     -0.15523809	      0.88555755	     -0.54251169	     -1.32414722	     -4.36275075	    -17.25120046	     44.48922903	      0.77648353	     24.08042675	      0.00000000	      0.00000000	      2.61449538	    -15.98387263	     -7.67341850	     47.18190808	      0.82347964	     20.26862314	      0.00000000	      0.00000000	    -19.50249458	      5.14811766	     -4.28973666
      3.81500000	     10.19263619	     -3.60805820	      6.62573416	     -0.15334737	      0.89167189	     -0.54205089	     -2.27021119	     -4.42469857	    -17.26651455	     42.46827141	      0.74121116	     22.19991382	      0.00000000	      0.00000000	      1.48926227	    -15.62174874	     -8.35407456	     45.07105778	      0.78663836	     18.04691604	      0.00000000	      0.00000000	    -19.10494257	      4.73666029	     -4.27784406
      3.82000000	     10.17719022	     -3.29933112	      6.42519064	     -0.15142415	      0.89797363	     -0.54156356	     -3.26067539	     -4.50287330	    -17.29445004	     40.36172475	      0.70444499	     20.19421693	      0.00000000	      0.00000000	      0.30382785	    -15.22334579	     -9.08783193	     42.85532729	      0.74796656	     15.68654046	      0.00000000	      0.00000000	    -18.71095211	      4.29862145	     -4.24856324
      3.82500000	     10.16179158	     -2.97530764	      6.20309944	     -0.14950284	      0.90440053	     -0.54105494	     -4.27194112	     -4.59551158	    -17.32968936	     38.18942178	      0.66653115	     18.06702473	      0.00000000	      0.00000000	     -0.91824937	    -14.78805564	     -9.85724074	     40.55267609	      0.70777772	     13.19802158	      0.00000000	      0.00000000	    -18.31342764	      3.84007282	     -4.20045799
      3.83000000	     10.13774888	     -2.64579135	      5.96315025	     -0.14760931	      0.91090437	     -0.54054042	     -5.28046601	     -4.69489522	    -17.36441425	     35.97653125	      0.62790892	     15.82656557	      0.00000000	      0.00000000	     -2.15246434	    -14.32245573	    -10.64256034	     38.18095242	      0.66638333	     10.60216386	      0.00000000	      0.00000000	    -17.90505792	      3.37413331	     -4.13430722
      3.83500000	     10.09822647	     -2.31956432	      5.71224995	     -0.14577540	      0.91743440	     -0.54003364	     -6.26795961	     -4.79206581	    -17.38841493	     33.74058939	      0.58888438	     13.50953206	      0.00000000	      0.00000000	     -3.37384327	    -13.83391032	    -11.41951823	     35.76303555	      0.62418272	      7.91791019	      0.00000000	      0.00000000	    -17.48071606	      2.91302092	     -4.05534174
      3.84000000	     10.03231108	     -2.00027945	      5.45890224	     -0.14402847	      0.92393694	     -0.53954985	     -7.20596221	     -4.88805059	    -17.40051053	     31.51733708	      0.55008130	     11.13710304	      0.00000000	      0.00000000	     -4.55161092	    -13.32543356	    -12.16167666	     33.32673835	      0.58166131	      5.17532948	      0.00000000	      0.00000000	    -17.03137723	      2.46329815	     -3.96982385
      3.84500000	      9.93397123	     -1.70112936	      5.21546535	     -0.14239942	      0.93037665	     -0.53911040	     -8.08193614	     -4.96520115	    -17.38244495	     29.31640768	      0.51166784	      8.72489573	      0.00000000	      0.00000000	     -5.65792674	    -12.81386531	    -12.84168717	     30.90347438	      0.53936738	      2.40137883	      0.00000000	      0.00000000	    -16.55328633	      2.04330445	     -3.88575292
      3.85000000	      9.79965945	     -1.42813863	      4.99264852	     -0.14090213	      0.93672975	     -0.53873241	     -8.88689120	     -5.01703033	    -17.32777786	     27.15162214	      0.47388520	      6.29213243	      0.00000000	      0.00000000	     -6.67308098	    -12.31170645	    -13.44093148	     28.52107391	      0.49778665	     -0.37291453	      0.00000000	      0.00000000	    -16.04419610	      1.66204338	     -3.81055101
      3.85500000	      9.62998457	     -1.18166657	      4.79646902	     -0.13954997	      0.94297095	     -0.53841909	     -9.61764886	     -5.04420693	    -17.23146535	     25.03476489	      0.43693907	      3.86058261	      0.00000000	      0.00000000	     -7.58575730	    -11.82714440	    -13.95081255	     26.20542977	      0.45737103	     -3.12691926	      0.00000000	      0.00000000	    -15.50692695	      1.32022844	     -3.74743724
      3.86000000	      9.42598086	     -0.96446254	      4.63234755	     -0.13834450	      0.94908584	     -0.53817818	    -10.27166661	     -5.04602725	    -17.09304594	     22.97905429	      0.40106016	      1.43377207	      0.00000000	      0.00000000	     -8.38809940	    -11.37134737	    -14.37012765	     23.97875961	      0.41850831	     -5.83494396	      0.00000000	      0.00000000	    -14.94457274	      1.02229550	     -3.69973080
      3.86500000	      9.19303291	     -0.78263848	      4.50365620	     -0.13728201	      0.95507168	     -0.53800992	    -10.86299981	     -5.01279714	    -16.90195954	     20.97176593	      0.36602637	     -0.98778863	      0.00000000	      0.00000000	     -9.08097687	    -10.95905579	    -14.70298803	     21.85742259	      0.38148399	     -8.47920795	      0.00000000	      0.00000000	    -14.36325557	      0.77462037	     -3.66698951
      3.87000000	      8.93869394	     -0.63079419	      4.41003004	     -0.13634170	      0.96092310	     -0.53790183	    -11.40447194	     -4.95161455	    -16.66586761	     19.01013006	      0.33178936	     -3.38816963	      0.00000000	      0.00000000	     -9.67394509	    -10.59139803	    -14.96164153	     19.84843646	      0.34642057	    -11.04594886	      0.00000000	      0.00000000	    -13.77093856	      0.56929464	     -3.65062354
      3.87500000	      8.66671829	     -0.50556389	      4.34607618	     -0.13551526	      0.96662638	     -0.53784499	    -11.90036935	     -4.86886223	    -16.38276571	     17.09662489	      0.29839240	     -5.76683787	      0.00000000	      0.00000000	    -10.17501067	    -10.26635504	    -15.15598490	     17.95288194	      0.31333690	    -13.53594198	      0.00000000	      0.00000000	    -13.17266458	      0.40133278	     -3.64744059
      3.88000000	      8.37937681	     -0.40291822	      4.30714540	     -0.13479279	      0.97216998	     -0.53782861	    -12.35267390	     -4.77157441	    -16.05436650	     15.23485768	      0.26589843	     -8.12180897	      0.00000000	      0.00000000	    -10.59086857	     -9.98043253	    -15.29605083	     16.16979234	      0.28221612	    -15.94299203	      0.00000000	      0.00000000	    -12.57171113	      0.26430966	     -3.65561358
      3.88500000	      8.07823387	     -0.31555855	      4.28426145	     -0.13416389	      0.97754067	     -0.53783708	    -12.76317975	     -4.66938369	    -15.67485553	     13.42307186	      0.23427680	    -10.44651102	      0.00000000	      0.00000000	    -10.93179259	     -9.72377855	    -15.39198660	     14.48926802	      0.25288543	    -18.26912263	      0.00000000	      0.00000000	    -11.96991533	      0.14742221	     -3.66944982
